<svg xmlns="http://www.w3.org/2000/svg" viewBox="0 0 418.72 379.13"><defs><style>.cls-1,.cls-12,.cls-6{fill:#c6ff00;}.cls-11,.cls-2,.cls-9{fill:#fff;}.cls-2{opacity:0.7;}.cls-13,.cls-3{fill:none;}.cls-10,.cls-11,.cls-12,.cls-13,.cls-3,.cls-4,.cls-5,.cls-6,.cls-7,.cls-9{stroke:#263238;stroke-width:1.17px;}.cls-3,.cls-4,.cls-5,.cls-6,.cls-7,.cls-9{stroke-linecap:round;stroke-linejoin:round;}.cls-10,.cls-4,.cls-8{fill:#263238;}.cls-5{fill:#4c4c4c;}.cls-7{fill:#ccc;}.cls-10,.cls-11,.cls-12,.cls-13{stroke-miterlimit:10;}</style></defs><g id="Background_Simple" data-name="Background Simple"><path class="cls-1" d="M55.48,273.73s2.32,72,62.43,120,143.41,51.43,210.84,56,119.23-33.62,127-91.32-43.72-74.64-71.68-140.33S358.64,130.8,299.49,90.4,147.8,74.81,99.29,144,55.48,273.73,55.48,273.73Z" transform="translate(-38.79 -70.96)"/><path class="cls-2" d="M55.48,273.73s2.32,72,62.43,120,143.41,51.43,210.84,56,119.23-33.62,127-91.32-43.72-74.64-71.68-140.33S358.64,130.8,299.49,90.4,147.8,74.81,99.29,144,55.48,273.73,55.48,273.73Z" transform="translate(-38.79 -70.96)"/></g><g id="Padlock"><path class="cls-3" d="M83.61,179.69V153.92c0-18.24,15.16-33.08,33.79-33.08s33.79,14.84,33.79,33.08v25.77h13.47V153.92c0-25.51-21.2-46.27-47.26-46.27s-47.26,20.76-47.26,46.27v25.77Z" transform="translate(-38.79 -70.96)"/><rect class="cls-3" x="26.35" y="108.91" width="103.18" height="85.35"/><path class="cls-3" d="M127.46,215.32a11.24,11.24,0,0,0-22.47,0,11,11,0,0,0,5.9,9.68L109,244.38h14.45L121.56,225A11,11,0,0,0,127.46,215.32Z" transform="translate(-38.79 -70.96)"/></g><g id="Character"><polygon class="cls-4" points="193.85 197.03 168.16 195.34 168.16 194.92 165 195.13 161.85 194.92 161.85 195.34 136.16 197.03 117.21 352.82 136.16 352.82 164.37 228.61 165.64 228.61 193.85 352.82 212.8 352.82 193.85 197.03"/><path class="cls-5" d="M156,423.78l-4.63,7.16-14.32,6.32a4.88,4.88,0,0,0-2.52,4.21v5.47h40.84a54.21,54.21,0,0,0,0-8.84c-.42-4.21-.42-14.32-.42-14.32Z" transform="translate(-38.79 -70.96)"/><path class="cls-4" d="M134.53,442.31v4.63h40.84s.19-2,.19-4.63Z" transform="translate(-38.79 -70.96)"/><path class="cls-5" d="M251.51,423.78l4.63,7.16,14.32,6.32a4.88,4.88,0,0,1,2.52,4.21v5.47H232.14a54.21,54.21,0,0,1,0-8.84c.42-4.21.42-14.32.42-14.32Z" transform="translate(-38.79 -70.96)"/><path class="cls-4" d="M273,442.31v4.63H232.14s-.18-2-.19-4.63Z" transform="translate(-38.79 -70.96)"/><path class="cls-6" d="M164.07,195.51s-30,42.16-30,45.25,4.77,26.95,12.35,29.19,11.79-1.68,13.19-9.54-3.37-19.09-3.37-19.09l14-12.63Z" transform="translate(-38.79 -70.96)"/><path class="cls-7" d="M158.25,259.29s8.7-1.41,10.95-.85,3.93,5.9,3.93,5.9.84,7.86-.57,9.54-8.14,3.65-10.94,4.21-8.71-5.89-11-9.82S152.35,257.6,158.25,259.29Z" transform="translate(-38.79 -70.96)"/><polygon class="cls-6" points="131.59 122.64 125.28 124.55 135.22 190.89 194.31 190.89 203.29 124.93 195.26 121.87 165.63 115.37 131.59 122.64"/><polygon class="cls-4" points="197.56 144.81 196.22 154.37 185.89 156.86 175.38 152.65 176.14 144.05 197.56 144.81"/><path class="cls-5" d="M223.53,223.52a1.82,1.82,0,1,1,1.82,1.82A1.83,1.83,0,0,1,223.53,223.52Z" transform="translate(-38.79 -70.96)"/><polygon class="cls-4" points="159.32 127.61 164.86 134.11 157.79 179.23 165.24 191.08 174.04 178.66 166.58 134.3 172.89 128.18 166.2 119.58 159.32 127.61"/><polygon class="cls-4" points="153.96 116.33 128.53 122.64 129.3 125.69 154.15 118.81 153.96 116.33"/><polygon class="cls-4" points="174.8 115.56 200.23 121.87 199.47 124.93 174.61 118.05 174.8 115.56"/><path class="cls-6" d="M239,192.83s9.62,2.17,15.51,5.54,7.3,10.95,3.93,19.37-13.75,7.3-18.52,5-6.18-10.66-5.34-14.31" transform="translate(-38.79 -70.96)"/><polygon class="cls-6" points="155.11 113.08 152.24 114.99 153.01 134.3 165.43 125.5 178.44 134.49 179.58 115.37 176.14 112.5 155.11 113.08"/><path class="cls-4" d="M219,161.07s7.06-1.72,8.39-8.78S216,136.64,207.18,135.12s-21.75,7.63-23.85,13.93,6.1,12.59,14.88,13.93S219,161.07,219,161.07Z" transform="translate(-38.79 -70.96)"/><path class="cls-7" d="M192.68,162.22s-3.82-5.92-4.77-.77,3.05,7.44,4.77,7.25S192.68,162.22,192.68,162.22Z" transform="translate(-38.79 -70.96)"/><path class="cls-7" d="M217.49,162.22s3.82-5.92,4.77-.77-3,7.44-4.77,7.25S217.49,162.22,217.49,162.22Z" transform="translate(-38.79 -70.96)"/><polygon class="cls-7" points="154.73 102.94 154.73 115.56 165.43 125.5 177.48 115.18 177.48 103.32 154.73 102.94"/><path class="cls-7" d="M191.92,158.4s-.58,11.83.38,15.65,7.25,11.83,12.21,13.55,11.83-8.59,13.36-12,.95-17.94.95-17.94-2.09-5-6.29-6.48S195.35,147,191.92,158.4Z" transform="translate(-38.79 -70.96)"/><path class="cls-8" d="M199.85,164.68c0,.9-.41,1.63-.92,1.63s-.92-.73-.92-1.63.41-1.63.92-1.63S199.85,163.78,199.85,164.68Z" transform="translate(-38.79 -70.96)"/><path class="cls-8" d="M211.56,164.68c0,.9-.41,1.63-.92,1.63s-.92-.73-.92-1.63.41-1.63.92-1.63S211.56,163.78,211.56,164.68Z" transform="translate(-38.79 -70.96)"/><path class="cls-7" d="M201.84,169.24a1.28,1.28,0,1,0,0,2.49,1.74,1.74,0,0,0,1.11-.37,3.21,3.21,0,0,0,4.82.08,1.8,1.8,0,0,0,1,.29,1.28,1.28,0,1,0,0-2.49" transform="translate(-38.79 -70.96)"/><line class="cls-7" x1="164.57" y1="106.11" x2="168.56" y2="106.11"/><path class="cls-4" d="M191.48,161.27s.14,3.84,1.42,2.84,1.7-7.52.57-8.37S191.48,159.29,191.48,161.27Z" transform="translate(-38.79 -70.96)"/><path class="cls-4" d="M216.11,161.27s.15,3.84,1.42,2.84,1.71-7.52.57-8.37S216.11,159.29,216.11,161.27Z" transform="translate(-38.79 -70.96)"/><path class="cls-5" d="M191.48,158.15s.43.35.42.52c1.85,1,6.1,2.84,13,3.21a26.56,26.56,0,0,0,14-3.43c0-.51,0-.81,0-.82-.17-4.47-3.49-7.45-7.6-8.59a19.57,19.57,0,0,0-12.24.61,12,12,0,0,0-5.07,3.65C193.48,153.86,190.78,157.59,191.48,158.15Z" transform="translate(-38.79 -70.96)"/><path class="cls-5" d="M191.92,158.4a45.19,45.19,0,0,0,13,.95c8.21-.38,13.92-.95,13.92-.95a22.64,22.64,0,0,1-13.8,6.06A15.14,15.14,0,0,1,191.92,158.4Z" transform="translate(-38.79 -70.96)"/><polygon class="cls-4" points="132.17 144.81 133.5 154.37 143.83 156.86 154.34 152.65 153.58 144.05 132.17 144.81"/><path class="cls-5" d="M183.76,223.52a1.82,1.82,0,1,0-1.81,1.82A1.82,1.82,0,0,0,183.76,223.52Z" transform="translate(-38.79 -70.96)"/><rect class="cls-5" x="134.34" y="190.29" width="60.63" height="9.54"/><rect class="cls-5" x="130.13" y="190.85" width="18.53" height="11.79" rx="2.67"/><rect class="cls-5" x="178.41" y="190.85" width="18.53" height="11.79" rx="2.67"/><rect class="cls-9" x="159.04" y="190.85" width="13.19" height="8.42"/><path class="cls-3" d="M156.28,241.32s-8.42-.56-11.51-5.89" transform="translate(-38.79 -70.96)"/><ellipse class="cls-6" cx="211.11" cy="131.06" rx="13.9" ry="14.6"/><ellipse class="cls-6" cx="211.11" cy="123.66" rx="10.88" ry="9.75"/><ellipse class="cls-7" cx="211.11" cy="116.5" rx="10.88" ry="9.75"/><path class="cls-7" d="M232.42,166.44s.19,14.38.92,18.62,3.69,9.77,7.75,9.77a25.53,25.53,0,0,0,7.93-1.47s4.79,2.58,9.4,1.84,3.87-7.19,3.87-10-.55-23.6-.55-23.6.37-2-1.48-2.39a15.8,15.8,0,0,0-2.76-.37v-4.43a3.36,3.36,0,0,0-3.14-1.47c-2.39,0-2.58.55-2.58.55v-4.06s-2-3.23-4.61-1.66a3.68,3.68,0,0,0-1.84,2.95l-.19,3.88s-4.42-1.66-4.79.92S239.24,174,239.24,174a40.86,40.86,0,0,0-1.47-7.38C236.85,164.22,232.42,164.22,232.42,166.44Z" transform="translate(-38.79 -70.96)"/><line class="cls-3" x1="206.36" y1="83.67" x2="206.72" y2="100.64"/><line class="cls-3" x1="212.99" y1="82.57" x2="213.18" y2="100.82"/><line class="cls-3" x1="218.71" y1="87.91" x2="218.34" y2="100.64"/><line class="cls-3" x1="203.96" y1="100.45" x2="220.74" y2="101.19"/><path class="cls-3" d="M239.24,174a4.51,4.51,0,0,0,1.81,3.58c1.82,1.14,5.92,4.1,6.37,8.88" transform="translate(-38.79 -70.96)"/></g><g id="Text"><path class="cls-8" d="M350,128.81V131h-5.33v7.76h6.55V141h-9v-21.8h9v2.21h-6.55v7.44Z" transform="translate(-38.79 -70.96)"/><path class="cls-8" d="M358.3,119.16c3.42,0,4.86,1.74,4.86,5v1.78c0,2.4-.84,3.89-2.71,4.48,2,.59,2.74,2.21,2.74,4.55v3.4a5.49,5.49,0,0,0,.43,2.61h-2.46a5.7,5.7,0,0,1-.4-2.64v-3.43c0-2.46-1.15-3.24-3.18-3.24h-1.71V141h-2.43v-21.8Zm-.63,10.28c1.94,0,3.09-.63,3.09-3v-2.09c0-2-.72-3-2.52-3h-2.37v8.07Z" transform="translate(-38.79 -70.96)"/><path class="cls-8" d="M370.57,119.16c3.43,0,4.86,1.74,4.86,5v1.78c0,2.4-.84,3.89-2.71,4.48,2,.59,2.74,2.21,2.74,4.55v3.4a5.37,5.37,0,0,0,.44,2.61h-2.46a5.66,5.66,0,0,1-.41-2.64v-3.43c0-2.46-1.15-3.24-3.18-3.24h-1.71V141h-2.43v-21.8ZM370,129.44c1.93,0,3.08-.63,3.08-3v-2.09c0-2-.71-3-2.52-3h-2.37v8.07Z" transform="translate(-38.79 -70.96)"/><path class="cls-8" d="M377.8,124.42c0-3.33,1.65-5.48,5-5.48s5,2.15,5,5.48V135.7c0,3.3-1.65,5.48-5,5.48s-5-2.18-5-5.48Zm2.4,11.4c0,2,.84,3.15,2.58,3.15s2.59-1.15,2.59-3.15V124.3c0-2-.81-3.15-2.59-3.15s-2.58,1.18-2.58,3.15Z" transform="translate(-38.79 -70.96)"/><path class="cls-8" d="M395,119.16c3.43,0,4.86,1.74,4.86,5v1.78c0,2.4-.84,3.89-2.71,4.48,2,.59,2.74,2.21,2.74,4.55v3.4a5.37,5.37,0,0,0,.44,2.61h-2.46a5.66,5.66,0,0,1-.41-2.64v-3.43c0-2.46-1.15-3.24-3.18-3.24h-1.71V141H390.1v-21.8Zm-.62,10.28c1.93,0,3.08-.63,3.08-3v-2.09c0-2-.71-3-2.52-3h-2.37v8.07Z" transform="translate(-38.79 -70.96)"/><path class="cls-8" d="M329.38,264.88v2.21h-5v9.44h-2.43v-21.8h8.66v2.21h-6.23v7.94Z" transform="translate(-38.79 -70.96)"/><path class="cls-8" d="M332.33,260c0-3.33,1.66-5.48,5-5.48s5,2.15,5,5.48v11.28c0,3.3-1.65,5.48-5,5.48s-5-2.18-5-5.48Zm2.4,11.4c0,2,.84,3.15,2.59,3.15s2.58-1.15,2.58-3.15V259.87c0-2-.81-3.15-2.58-3.15s-2.59,1.18-2.59,3.15Z" transform="translate(-38.79 -70.96)"/><path class="cls-8" d="M349.5,254.73c3.42,0,4.86,1.74,4.86,5v1.78c0,2.4-.84,3.89-2.71,4.48,2,.59,2.74,2.21,2.74,4.55v3.4a5.37,5.37,0,0,0,.44,2.61h-2.46a5.53,5.53,0,0,1-.41-2.64v-3.43c0-2.46-1.15-3.24-3.18-3.24h-1.71v9.31h-2.43v-21.8ZM348.88,265c1.93,0,3.08-.63,3.08-3v-2.09c0-2-.72-3-2.52-3h-2.37V265Z" transform="translate(-38.79 -70.96)"/><path class="cls-8" d="M361.8,254.73c3.4,0,4.74,1.62,4.74,4.83v1c0,2.31-.66,3.74-2.56,4.33,2.12.6,2.93,2.28,2.93,4.68v1.83c0,3.27-1.59,5.11-5,5.11h-5v-21.8Zm-.59,9.25c1.93,0,2.93-.62,2.93-2.9V259.8c0-1.93-.66-2.86-2.4-2.86h-2.4v7Zm.72,10.34c1.77,0,2.58-.93,2.58-3v-1.93c0-2.43-1-3.24-3.05-3.24h-2.12v8.13Z" transform="translate(-38.79 -70.96)"/><path class="cls-8" d="M371.55,254.73v21.8h-2.43v-21.8Z" transform="translate(-38.79 -70.96)"/><path class="cls-8" d="M379.15,254.73c3.4,0,5,2,5,5.42v11c0,3.34-1.56,5.39-5,5.39h-5.1v-21.8Zm0,19.59c1.75,0,2.59-1.09,2.59-3.08V260c0-2-.84-3.08-2.62-3.08h-2.62v17.38Z" transform="translate(-38.79 -70.96)"/><path class="cls-8" d="M391.49,254.73c3.39,0,4.95,2,4.95,5.42v11c0,3.34-1.56,5.39-4.95,5.39h-5.11v-21.8Zm0,19.59c1.74,0,2.58-1.09,2.58-3.08V260c0-2-.84-3.08-2.61-3.08h-2.62v17.38Z" transform="translate(-38.79 -70.96)"/><path class="cls-8" d="M406.47,264.38v2.18h-5.33v7.76h6.55v2.21h-9v-21.8h9v2.21h-6.55v7.44Z" transform="translate(-38.79 -70.96)"/><path class="cls-8" d="M412.08,276.53H409.9v-21.8H413l5,15.76V254.73h2.15v21.8h-2.53l-5.57-17.63Z" transform="translate(-38.79 -70.96)"/><path class="cls-8" d="M306.54,208.26l22.25-52.61h13.35v52.61h5.78v11.12h-5.78V233.5h-12V219.38H306.54Zm23.58,0V179l-12.34,29.25Z" transform="translate(-38.79 -70.96)"/><path class="cls-8" d="M352.48,174.33c0-12.45,6.56-19.57,18.57-19.57s18.58,7.12,18.58,19.57v40.49c0,12.45-6.57,19.57-18.58,19.57s-18.57-7.12-18.57-19.57Zm12.23,41.27c0,5.56,2.45,7.67,6.34,7.67s6.34-2.11,6.34-7.67v-42c0-5.57-2.44-7.68-6.34-7.68s-6.34,2.11-6.34,7.68Z" transform="translate(-38.79 -70.96)"/><path class="cls-8" d="M421.1,174.78c0-7-2.44-8.9-6.34-8.9s-6.34,2.11-6.34,7.68v5H396.86v-4.23c0-12.45,6.22-19.57,18.24-19.57s18.24,7.12,18.24,19.57v2c0,8.34-2.67,13.57-8.57,16,6.12,2.67,8.57,8.45,8.57,16.35v6.12c0,12.45-6.23,19.57-18.24,19.57s-18.24-7.12-18.24-19.57v-6.45h11.56v7.23c0,5.56,2.45,7.67,6.34,7.67s6.34-1.89,6.34-8.79v-6.11c0-7.23-2.44-9.9-8-9.9H409V187.35h4.78c4.56,0,7.34-2,7.34-8.23Z" transform="translate(-38.79 -70.96)"/></g><g id="Security_Barrier" data-name="Security Barrier"><polygon class="cls-10" points="48.08 375.54 33.83 375.54 52.83 243.02 67.09 243.02 48.08 375.54"/><polygon class="cls-11" points="76.6 375.54 90.85 375.54 71.84 243.02 57.59 243.02 76.6 375.54"/><polygon class="cls-10" points="250.39 375.54 236.14 375.54 255.15 243.02 269.4 243.02 250.39 375.54"/><polygon class="cls-11" points="278.91 375.54 293.16 375.54 274.15 243.02 259.9 243.02 278.91 375.54"/><rect class="cls-12" x="16.94" y="222.25" width="271.93" height="26.36"/><rect class="cls-12" x="23.57" y="222.25" width="271.93" height="26.36"/><polygon class="cls-8" points="28.02 248.61 51.11 248.61 63.03 222.25 39.95 222.25 28.02 248.61"/><polygon class="cls-8" points="119.38 222.25 96.3 222.25 84.37 248.61 107.45 248.61 119.38 222.25"/><polygon class="cls-8" points="288.43 222.25 265.34 222.25 253.42 248.61 276.5 248.61 288.43 222.25"/><polygon class="cls-8" points="232.08 222.25 209 222.25 197.07 248.61 220.15 248.61 232.08 222.25"/><polygon class="cls-8" points="175.73 222.25 152.65 222.25 140.72 248.61 163.8 248.61 175.73 222.25"/><line class="cls-13" x1="294.01" y1="233.94" x2="249.01" y2="233.94"/><line class="cls-13" x1="293.23" y1="238.35" x2="286.12" y2="238.35"/><line class="cls-13" x1="22.42" y1="237.25" x2="67.42" y2="237.25"/><line class="cls-13" x1="23.21" y1="232.29" x2="80.06" y2="232.29"/><rect class="cls-4" x="292.58" y="369.76" width="77.14" height="5.79"/><polygon class="cls-6" points="356.7 369.6 305.6 369.6 325.63 260.64 336.67 260.64 356.7 369.6"/><polygon class="cls-9" points="318.19 301.13 344.12 301.13 341.63 287.63 320.67 287.63 318.19 301.13"/><line class="cls-6" x1="349.02" y1="351.41" x2="350.31" y2="358.86"/><line class="cls-6" x1="334.43" y1="266.66" x2="347.41" y2="342.03"/></g><g id="Floor"><line class="cls-3" x1="411.22" y1="375.54" x2="418.13" y2="375.54"/><line class="cls-3" x1="0.58" y1="375.54" x2="401.57" y2="375.54"/></g></svg>